<svg data-v-2cb57da0="" version="1.0" xmlns="http://www.w3.org/2000/svg" xmlns:xlink="http://www.w3.org/1999/xlink" width="100%" height="100%" viewBox="0 0 340.000000 250.000000" preserveAspectRatio="xMidYMid meet" color-interpolation-filters="sRGB" style="margin: auto;"><rect data-v-2cb57da0="" x="0" y="0" width="100%" height="100%" fill="#030f2b" fill-opacity="1" class="background"></rect> <rect data-v-2cb57da0="" x="0" y="0" width="100%" height="100%" fill="url(#watermark)" fill-opacity="1" class="watermarklayer"></rect> <g data-v-2cb57da0="" class="iconmbgsvg" transform="translate(95,50.063697814941406)"><g fill="#ffffff" hollow-target="textFill" mask="url(#d7ded348-06d2-4d88-82c2-8d88647d8c3a)"><g mask="url(#d18683c9-1472-4ed0-9f85-6d8bff997ac3)"><g><rect fill="#ffffff" fill-opacity="0" stroke-width="2" x="0" y="0" width="150" height="149.87260828295948" class="image-rect"></rect> <svg filter="url(#colors1600447228)" x="0" y="0" width="150" height="149.87260828295948" filtersec="colorsf9947256750" class="image-svg-svg primary" style="overflow: visible;"><svg xmlns="http://www.w3.org/2000/svg" viewBox="0.0014691948890686035 -0.00414702296257019 416.7874450683594 416.43255615234375"><g><path d="M415.65 162.72c-1.21-20.68-3.53-41.15-9.32-61.09-13.62-46.83-44.09-76.88-90.72-90.72-29.06-8.63-59-9.79-89-10.65-19.47-.56-39-.2-58.44.8C145.49 2.23 123 4.5 101.11 11 57.7 23.81 27.75 51 12.84 94.11c-9 26-11.62 53-12.31 80.17-.67 26.79-.92 53.62.58 80.43 1.16 20.7 3.6 41.12 9.35 61.08 10.93 38 33.73 66.06 69.8 82.8 16 7.43 33 11.3 50.41 13.89 25.8 3.84 51.76 4 80.91 3.94 12.32-.36 27.79.05 43.29-.9 20.68-1.28 41.14-3.58 61.07-9.4 43.93-12.84 73.71-40.65 88.46-84.19 8.65-25.53 11.24-52.07 11.87-78.74s.95-53.66-.62-80.47z"></path></g></svg></svg> <defs><filter id="colors1600447228"><feColorMatrix type="matrix" values="0 0 0 0 0.2578125  0 0 0 0 0.40234375  0 0 0 0 0.33203125  0 0 0 1 0" class="icon-fecolormatrix"></feColorMatrix></filter> <filter id="colorsf9947256750"><feColorMatrix type="matrix" values="0 0 0 0 0.99609375  0 0 0 0 0.99609375  0 0 0 0 0.99609375  0 0 0 1 0" class="icon-fecolormatrix"></feColorMatrix></filter> <filter id="colorsb5172820474"><feColorMatrix type="matrix" values="0 0 0 0 0  0 0 0 0 0  0 0 0 0 0  0 0 0 1 0" class="icon-fecolormatrix"></feColorMatrix></filter></defs></g><rect v-gra="id" width="162" height="161.8726043701172" transform="translate(-6, -6)" style="pointer-events:none;" fill="url(#czEKjGpgjexXxhSk0UIC5)"></rect></g> <g transform="translate(19.27676773071289,41.28151321411133)"><g data-gra="path-name" fill-rule="" class="tp-name"><g transform="scale(1)"><g><path d="M13.76-9.88L13.76-9.88Q13.15-7.9 12.69-6.31L12.69-6.31Q12.24-4.64 11.82-3.38 11.4-2.13 10.83-1.41 10.26-0.68 9.35-0.53L9.35-0.53 9.12-0.53Q8.59-0.53 7.49-0.53 6.38-0.53 5.36-0.61 4.33-0.68 4.03-0.84L4.03-0.84Q3.65-1.52 3.65-2.74 3.65-3.95 3.88-5.36 4.1-6.76 4.33-7.98L4.33-7.98Q4.41-8.21 4.41-8.36L4.41-8.36 9.2-31.01Q9.5-32.3 9.92-34.09 10.34-35.87 10.75-37.62 11.17-39.37 11.48-40.55 11.78-41.72 11.78-41.72L11.78-41.72Q14.06-42.33 15.66-42.26 17.25-42.18 18.09-40.89 18.92-39.6 18.89-36.67 18.85-33.74 17.9-28.73 16.95-23.71 14.97-16.19L14.97-16.19Q19.46-21.89 23.37-28.88 27.28-35.87 29.68-42.29 32.07-48.72 32-52.74L32-52.74Q31.54-55.4 29.45-55.9 27.36-56.39 24.21-55.29 21.05-54.19 17.52-51.95 13.98-49.7 10.75-46.85 7.52-44 5.21-41.08 2.89-38.15 2.13-35.64 1.37-33.14 2.89-31.62L2.89-31.62Q3.34-30.93 3.19-30.55 3.04-30.17 2.81-30.02L2.81-30.02Q2.58-29.87 2.2-29.91 1.82-29.94 1.52-30.25L1.52-30.25Q0.08-32.07 0.68-34.77 1.29-37.47 3.5-40.55 5.7-43.62 8.93-46.74 12.16-49.86 15.96-52.52 19.76-55.18 23.56-56.92 27.36-58.67 30.67-59.17 33.97-59.66 36.25-58.37 38.53-57.08 39.29-53.66L39.29-53.66Q39.52-52.67 39.33-50.2 39.14-47.73 38.19-44.16 37.24-40.58 35.11-36.48L35.11-36.48Q31.77-29.94 28.99-25.65 26.22-21.36 23.33-18.39L23.33-18.39 24.78-18.39Q25.76-18.39 26.71-18.35 27.66-18.32 28.35-18.01L28.35-18.01Q29.34-17.56 29.94-17.02 30.55-16.49 30.86-15.62 31.16-14.74 31.08-13.3L31.08-13.3Q34.66-16.11 36.4-17.29 38.15-18.47 38.99-18.92L38.99-18.92Q39.44-19.23 39.71-19.34 39.98-19.46 40.13-19.34 40.28-19.23 40.43-19.08L40.43-19.08Q40.51-19 40.58-18.92L40.58-18.92Q40.74-18.54 40.55-18.2 40.36-17.86 39.98-17.63L39.98-17.63Q39.37-17.1 38-16.11L38-16.11Q36.94-15.43 35.23-14.17 33.52-12.92 30.86-10.87L30.86-10.87Q30.48-7.45 29.07-3.91 27.66-0.38 25.54 2.51 23.41 5.4 20.94 6.92 18.47 8.44 15.96 7.83L15.96 7.83Q15.73 7.75 15.43 7.68L15.43 7.68Q14.52 7.45 13.41 7.07 12.31 6.69 11.55 5.85 10.79 5.02 10.87 3.65L10.87 3.65Q11.02 1.9 13.41-0.87 15.81-3.65 20.22-6.84L20.22-6.84 25.31-10.56Q25.61-11.4 25.8-12.65 25.99-13.91 25.8-14.93 25.61-15.96 24.78-16.11L24.78-16.11Q23.26-16.26 21.7-15.54 20.14-14.82 18.62-13.72 17.1-12.62 15.81-11.48L15.81-11.48Q14.67-10.56 13.76-9.88ZM21.2-5.4L21.2-5.4Q17.1-2.51 15.09-0.38 13.07 1.75 12.65 3.08 12.24 4.41 12.96 4.83 13.68 5.24 15.16 4.71 16.64 4.18 18.47 2.62 20.29 1.06 22-1.56 23.71-4.18 24.85-7.98L24.85-7.98Q24.24-7.52 23.79-7.22L23.79-7.22Q22.27-6.08 21.2-5.4ZM74.1 1.14L74.1 1.14Q73.42 1.44 71.93 1.48 70.45 1.52 69.08 1.1 67.72 0.68 67.41-0.3L67.41-0.3Q67.03-2.13 67.56-7.6 68.1-13.07 69.16-20.14 70.22-27.21 71.36-33.82 72.5-40.43 73.19-44.54L73.19-44.54Q71.82-40.89 69.2-33.33 66.58-25.76 64.3-18.92 62.02-12.08 61.71-10.49L61.71-10.49Q61.64-10.26 60.46-10.22 59.28-10.18 57.72-10.49 56.16-10.79 54.99-11.4 53.81-12.01 53.81-13L53.81-13Q53.73-18.09 54.04-23.03 54.34-27.97 54.8-32.68L54.8-32.68Q55.02-36.02 55.29-39.25 55.56-42.48 55.63-45.68L55.63-45.68Q53.88-40.2 51.91-31.92 49.93-23.64 48.18-15.54 46.44-7.45 45.45-2.66L45.45-2.66Q45.37-2.36 45.3-2.05L45.3-2.05Q44.99-1.06 43.7-0.72 42.41-0.38 40.89-0.68 39.37-0.99 38.23-1.9 37.09-2.81 37.16-4.41L37.16-4.41Q37.39-9.88 38.53-17.94 39.67-25.99 41.12-34.2 42.56-42.41 43.78-48.45 44.99-54.49 45.37-55.86L45.37-55.86Q45.9-56.32 47.12-56.62 48.34-56.92 49.7-56.73 51.07-56.54 51.98-55.52 52.9-54.49 52.67-52.29L52.67-52.29Q51.45-45.68 50.58-39.63 49.7-33.59 49.02-28.73L49.02-28.73Q48.34-24.09 47.88-21.05L47.88-21.05Q48.72-24.4 49.63-28.58L49.63-28.58Q50.39-32.15 51.22-35.76 52.06-39.37 53.01-42.48 53.96-45.6 54.91-47.58 55.86-49.55 56.92-49.93L56.92-49.93Q57.53-50.16 58.79-50.12 60.04-50.08 61.41-49.59 62.78-49.1 63.69-47.96L63.69-47.96Q64.22-47.35 64.26-44.46 64.3-41.57 64.03-37.51 63.76-33.44 63.46-29.18L63.46-29.18Q63.08-24.55 62.85-21.05L62.85-21.05Q64.9-26.22 66.5-30.59 68.1-34.96 69.31-38.53L69.31-38.53Q70.68-42.64 71.78-45.56 72.88-48.49 73.91-50.16 74.94-51.83 76-52.21L76-52.21Q76-52.21 76.68-52.1 77.37-51.98 78.32-51.68 79.27-51.38 80.07-50.81 80.86-50.24 81.09-49.32L81.09-49.32Q81.24-47.65 80.37-40.55 79.5-33.44 78.2-24.43 76.91-15.43 75.73-8.13 74.56-0.84 74.1 1.14ZM87.32-1.75L87.32-1.75Q86.34-2.89 86.68-4.83 87.02-6.76 88.12-9.12 89.22-11.48 90.52-13.64 91.81-15.81 92.8-17.4L92.8-17.4Q93.18-17.94 93.48-18.39L93.48-18.39Q93.33-18.54 93.1-18.7L93.1-18.7Q92.64-19.15 91.96-19.61L91.96-19.61Q88.54-21.96 86.83-25.35 85.12-28.73 84.85-32.64 84.59-36.56 85.61-40.43 86.64-44.31 88.73-47.69 90.82-51.07 93.82-53.39 96.82-55.71 100.55-56.54L100.55-56.54Q104.42-57.3 106.93-56.39 109.44-55.48 110.66-52.93 111.87-50.39 111.95-46.28L111.95-46.28Q111.95-43.7 111.04-41.88 110.12-40.05 108.79-39.33 107.46-38.61 106.29-39.41 105.11-40.2 104.5-42.79L104.5-42.79Q104.35-43.62 104.42-44 104.5-44.38 104.88-44.61L104.88-44.61Q105.26-44.69 105.53-44.35 105.79-44 106.1-43.4L106.1-43.4Q106.7-41.12 107.43-40.74 108.15-40.36 108.87-41.23 109.59-42.1 109.97-43.62 110.35-45.14 110.28-46.82L110.28-46.82Q109.97-50.31 108.64-51.6 107.31-52.9 105.34-52.48 103.36-52.06 101.19-50.24 99.03-48.41 97.13-45.68 95.23-42.94 94.01-39.63 92.8-36.33 92.68-32.83 92.57-29.34 94.05-26.14 95.53-22.95 99.03-20.37L99.03-20.37Q102.14-18.01 103.36-15.05 104.58-12.08 103.82-8.97L103.82-8.97Q103.13-6.08 101.57-3.95 100.02-1.82 98.31-0.57 96.6 0.68 95.46 0.76L95.46 0.76Q94.09 0.84 92.42 0.46 90.74 0.08 89.34-0.49 87.93-1.06 87.32-1.75ZM95.99-12.39L95.99-12.39Q96.06-13.45 95.8-14.59 95.53-15.73 94.77-16.87L94.77-16.87Q93.86-15.43 92.57-13.3 91.28-11.17 90.21-8.93 89.15-6.69 88.73-4.94 88.31-3.19 89.15-2.51L89.15-2.51Q89.76-1.9 90.82-2.51 91.88-3.12 92.99-4.6 94.09-6.08 94.92-8.09 95.76-10.11 95.99-12.39Z" transform="translate(-0.5035295486450195, 59.30488586425781)"></path></g> <!----> <!----> <!----> <!----> <!----> <!----> <!----></g></g> <!----></g></g></g><mask id="d7ded348-06d2-4d88-82c2-8d88647d8c3a"><g fill="white"><g><rect fill-opacity="0" stroke-width="2" x="0" y="0" width="150" height="149.87260828295948" class="image-rect"></rect> <svg x="0" y="0" width="150" height="149.87260828295948" class="image-svg-svg primary" style="overflow: visible;" filter="url(#colorsf9947256750)"><svg xmlns="http://www.w3.org/2000/svg" viewBox="0.0014691948890686035 -0.00414702296257019 416.7874450683594 416.43255615234375"><g><path d="M415.65 162.72c-1.21-20.68-3.53-41.15-9.32-61.09-13.62-46.83-44.09-76.88-90.72-90.72-29.06-8.63-59-9.79-89-10.65-19.47-.56-39-.2-58.44.8C145.49 2.23 123 4.5 101.11 11 57.7 23.81 27.75 51 12.84 94.11c-9 26-11.62 53-12.31 80.17-.67 26.79-.92 53.62.58 80.43 1.16 20.7 3.6 41.12 9.35 61.08 10.93 38 33.73 66.06 69.8 82.8 16 7.43 33 11.3 50.41 13.89 25.8 3.84 51.76 4 80.91 3.94 12.32-.36 27.79.05 43.29-.9 20.68-1.28 41.14-3.58 61.07-9.4 43.93-12.84 73.71-40.65 88.46-84.19 8.65-25.53 11.24-52.07 11.87-78.74s.95-53.66-.62-80.47z"></path></g></svg></svg> <defs>  </defs></g></g> <g transform="translate(19.27676773071289,41.28151321411133)" fill="black"><g data-gra="path-name" fill-rule="" class="tp-name"><g transform="scale(1)"><g><path d="M13.76-9.88L13.76-9.88Q13.15-7.9 12.69-6.31L12.69-6.31Q12.24-4.64 11.82-3.38 11.4-2.13 10.83-1.41 10.26-0.68 9.35-0.53L9.35-0.53 9.12-0.53Q8.59-0.53 7.49-0.53 6.38-0.53 5.36-0.61 4.33-0.68 4.03-0.84L4.03-0.84Q3.65-1.52 3.65-2.74 3.65-3.95 3.88-5.36 4.1-6.76 4.33-7.98L4.33-7.98Q4.41-8.21 4.41-8.36L4.41-8.36 9.2-31.01Q9.5-32.3 9.92-34.09 10.34-35.87 10.75-37.62 11.17-39.37 11.48-40.55 11.78-41.72 11.78-41.72L11.78-41.72Q14.06-42.33 15.66-42.26 17.25-42.18 18.09-40.89 18.92-39.6 18.89-36.67 18.85-33.74 17.9-28.73 16.95-23.71 14.97-16.19L14.97-16.19Q19.46-21.89 23.37-28.88 27.28-35.87 29.68-42.29 32.07-48.72 32-52.74L32-52.74Q31.54-55.4 29.45-55.9 27.36-56.39 24.21-55.29 21.05-54.19 17.52-51.95 13.98-49.7 10.75-46.85 7.52-44 5.21-41.08 2.89-38.15 2.13-35.64 1.37-33.14 2.89-31.62L2.89-31.62Q3.34-30.93 3.19-30.55 3.04-30.17 2.81-30.02L2.81-30.02Q2.58-29.87 2.2-29.91 1.82-29.94 1.52-30.25L1.52-30.25Q0.08-32.07 0.68-34.77 1.29-37.47 3.5-40.55 5.7-43.62 8.93-46.74 12.16-49.86 15.96-52.52 19.76-55.18 23.56-56.92 27.36-58.67 30.67-59.17 33.97-59.66 36.25-58.37 38.53-57.08 39.29-53.66L39.29-53.66Q39.52-52.67 39.33-50.2 39.14-47.73 38.19-44.16 37.24-40.58 35.11-36.48L35.11-36.48Q31.77-29.94 28.99-25.65 26.22-21.36 23.33-18.39L23.33-18.39 24.78-18.39Q25.76-18.39 26.71-18.35 27.66-18.32 28.35-18.01L28.35-18.01Q29.34-17.56 29.94-17.02 30.55-16.49 30.86-15.62 31.16-14.74 31.08-13.3L31.08-13.3Q34.66-16.11 36.4-17.29 38.15-18.47 38.99-18.92L38.99-18.92Q39.44-19.23 39.71-19.34 39.98-19.46 40.13-19.34 40.28-19.23 40.43-19.08L40.43-19.08Q40.51-19 40.58-18.92L40.58-18.92Q40.74-18.54 40.55-18.2 40.36-17.86 39.98-17.63L39.98-17.63Q39.37-17.1 38-16.11L38-16.11Q36.94-15.43 35.23-14.17 33.52-12.92 30.86-10.87L30.86-10.87Q30.48-7.45 29.07-3.91 27.66-0.38 25.54 2.51 23.41 5.4 20.94 6.92 18.47 8.44 15.96 7.83L15.96 7.83Q15.73 7.75 15.43 7.68L15.43 7.68Q14.52 7.45 13.41 7.07 12.31 6.69 11.55 5.85 10.79 5.02 10.87 3.65L10.87 3.65Q11.02 1.9 13.41-0.87 15.81-3.65 20.22-6.84L20.22-6.84 25.31-10.56Q25.61-11.4 25.8-12.65 25.99-13.91 25.8-14.93 25.61-15.96 24.78-16.11L24.78-16.11Q23.26-16.26 21.7-15.54 20.14-14.82 18.62-13.72 17.1-12.62 15.81-11.48L15.81-11.48Q14.67-10.56 13.76-9.88ZM21.2-5.4L21.2-5.4Q17.1-2.51 15.09-0.38 13.07 1.75 12.65 3.08 12.24 4.41 12.96 4.83 13.68 5.24 15.16 4.71 16.64 4.18 18.47 2.62 20.29 1.06 22-1.56 23.71-4.18 24.85-7.98L24.85-7.98Q24.24-7.52 23.79-7.22L23.79-7.22Q22.27-6.08 21.2-5.4ZM74.1 1.14L74.1 1.14Q73.42 1.44 71.93 1.48 70.45 1.52 69.08 1.1 67.72 0.68 67.41-0.3L67.41-0.3Q67.03-2.13 67.56-7.6 68.1-13.07 69.16-20.14 70.22-27.21 71.36-33.82 72.5-40.43 73.19-44.54L73.19-44.54Q71.82-40.89 69.2-33.33 66.58-25.76 64.3-18.92 62.02-12.08 61.71-10.49L61.71-10.49Q61.64-10.26 60.46-10.22 59.28-10.18 57.72-10.49 56.16-10.79 54.99-11.4 53.81-12.01 53.81-13L53.81-13Q53.73-18.09 54.04-23.03 54.34-27.97 54.8-32.68L54.8-32.68Q55.02-36.02 55.29-39.25 55.56-42.48 55.63-45.68L55.63-45.68Q53.88-40.2 51.91-31.92 49.93-23.64 48.18-15.54 46.44-7.45 45.45-2.66L45.45-2.66Q45.37-2.36 45.3-2.05L45.3-2.05Q44.99-1.06 43.7-0.72 42.41-0.38 40.89-0.68 39.37-0.99 38.23-1.9 37.09-2.81 37.16-4.41L37.16-4.41Q37.39-9.88 38.53-17.94 39.67-25.99 41.12-34.2 42.56-42.41 43.78-48.45 44.99-54.49 45.37-55.86L45.37-55.86Q45.9-56.32 47.12-56.62 48.34-56.92 49.7-56.73 51.07-56.54 51.98-55.52 52.9-54.49 52.67-52.29L52.67-52.29Q51.45-45.68 50.58-39.63 49.7-33.59 49.02-28.73L49.02-28.73Q48.34-24.09 47.88-21.05L47.88-21.05Q48.72-24.4 49.63-28.58L49.63-28.58Q50.39-32.15 51.22-35.76 52.06-39.37 53.01-42.48 53.96-45.6 54.91-47.58 55.86-49.55 56.92-49.93L56.92-49.93Q57.53-50.16 58.79-50.12 60.04-50.08 61.41-49.59 62.78-49.1 63.69-47.96L63.69-47.96Q64.22-47.35 64.26-44.46 64.3-41.57 64.03-37.51 63.76-33.44 63.46-29.18L63.46-29.18Q63.08-24.55 62.85-21.05L62.85-21.05Q64.9-26.22 66.5-30.59 68.1-34.96 69.31-38.53L69.31-38.53Q70.68-42.64 71.78-45.56 72.88-48.49 73.91-50.16 74.94-51.83 76-52.21L76-52.21Q76-52.21 76.68-52.1 77.37-51.98 78.32-51.68 79.27-51.38 80.07-50.81 80.86-50.24 81.09-49.32L81.09-49.32Q81.24-47.65 80.37-40.55 79.5-33.44 78.2-24.43 76.91-15.43 75.73-8.13 74.56-0.84 74.1 1.14ZM87.32-1.75L87.32-1.75Q86.34-2.89 86.68-4.83 87.02-6.76 88.12-9.12 89.22-11.48 90.52-13.64 91.81-15.81 92.8-17.4L92.8-17.4Q93.18-17.94 93.48-18.39L93.48-18.39Q93.33-18.54 93.1-18.7L93.1-18.7Q92.64-19.15 91.96-19.61L91.96-19.61Q88.54-21.96 86.83-25.35 85.12-28.73 84.85-32.64 84.59-36.56 85.61-40.43 86.64-44.31 88.73-47.69 90.82-51.07 93.82-53.39 96.82-55.71 100.55-56.54L100.55-56.54Q104.42-57.3 106.93-56.39 109.44-55.48 110.66-52.93 111.87-50.39 111.95-46.28L111.95-46.28Q111.95-43.7 111.04-41.88 110.12-40.05 108.79-39.33 107.46-38.61 106.29-39.41 105.11-40.2 104.5-42.79L104.5-42.79Q104.35-43.62 104.42-44 104.5-44.38 104.88-44.61L104.88-44.61Q105.26-44.69 105.53-44.35 105.79-44 106.1-43.4L106.1-43.4Q106.7-41.12 107.43-40.74 108.15-40.36 108.87-41.23 109.59-42.1 109.97-43.62 110.35-45.14 110.28-46.82L110.28-46.82Q109.97-50.31 108.64-51.6 107.31-52.9 105.34-52.48 103.36-52.06 101.19-50.24 99.03-48.41 97.13-45.68 95.23-42.94 94.01-39.63 92.8-36.33 92.68-32.83 92.57-29.34 94.05-26.14 95.53-22.95 99.03-20.37L99.03-20.37Q102.14-18.01 103.36-15.05 104.58-12.08 103.82-8.97L103.82-8.97Q103.13-6.08 101.57-3.95 100.02-1.82 98.31-0.57 96.6 0.68 95.46 0.76L95.46 0.76Q94.09 0.84 92.42 0.46 90.74 0.08 89.34-0.49 87.93-1.06 87.32-1.75ZM95.99-12.39L95.99-12.39Q96.06-13.45 95.8-14.59 95.53-15.73 94.77-16.87L94.77-16.87Q93.86-15.43 92.57-13.3 91.28-11.17 90.21-8.93 89.15-6.69 88.73-4.94 88.31-3.19 89.15-2.51L89.15-2.51Q89.76-1.9 90.82-2.51 91.88-3.12 92.99-4.6 94.09-6.08 94.92-8.09 95.76-10.11 95.99-12.39Z" transform="translate(-0.5035295486450195, 59.30488586425781)"></path></g>       </g></g> </g></mask><defs v-gra="od"></defs><defs v-gra="id"><filter id="0151f62d-528b-47bf-bb3f-ec812ddccd13" filterUnits="userSpaceOnUse"><feColorMatrix type="matrix" values="0 0 0 0 0.99609375  0 0 0 0 0.99609375  0 0 0 0 0.99609375  0 0 0 1 0"></feColorMatrix></filter><linearGradient x1="0" y1="1" x2="0" y2="0" id="czEKjGpgjexXxhSk0UIC5"><stop offset="0%" stop-color="#a1c4fd"></stop><stop offset="100%" stop-color="#c2e9fb"></stop></linearGradient><filter id="42443b3f1de60f6b6fd3b6a9844b4764" filterUnits="userSpaceOnUse"><feColorMatrix type="matrix" values="0 0 0 0 0.99609375  0 0 0 0 0.99609375  0 0 0 0 0.99609375  0 0 0 1 0"></feColorMatrix></filter></defs><mask v-gra="im" id="d18683c9-1472-4ed0-9f85-6d8bff997ac3"><g filter="url(#0151f62d-528b-47bf-bb3f-ec812ddccd13)"><g><rect fill="#ffffff" fill-opacity="0" stroke-width="2" x="0" y="0" width="150" height="149.87260828295948" class="image-rect"></rect> <svg x="0" y="0" width="150" height="149.87260828295948" filtersec="colorsf9947256750" class="image-svg-svg primary" style="overflow: visible;"><svg xmlns="http://www.w3.org/2000/svg" viewBox="0.0014691948890686035 -0.00414702296257019 416.7874450683594 416.43255615234375"><g><path d="M415.65 162.72c-1.21-20.68-3.53-41.15-9.32-61.09-13.62-46.83-44.09-76.88-90.72-90.72-29.06-8.63-59-9.79-89-10.65-19.47-.56-39-.2-58.44.8C145.49 2.23 123 4.5 101.11 11 57.7 23.81 27.75 51 12.84 94.11c-9 26-11.62 53-12.31 80.17-.67 26.79-.92 53.62.58 80.43 1.16 20.7 3.6 41.12 9.35 61.08 10.93 38 33.73 66.06 69.8 82.8 16 7.43 33 11.3 50.41 13.89 25.8 3.84 51.76 4 80.91 3.94 12.32-.36 27.79.05 43.29-.9 20.68-1.28 41.14-3.58 61.07-9.4 43.93-12.84 73.71-40.65 88.46-84.19 8.65-25.53 11.24-52.07 11.87-78.74s.95-53.66-.62-80.47z"></path></g></svg></svg> <defs><filter id="colors1600447228"><feColorMatrix type="matrix" values="0 0 0 0 0.2578125  0 0 0 0 0.40234375  0 0 0 0 0.33203125  0 0 0 1 0" class="icon-fecolormatrix"></feColorMatrix></filter> <filter id="colorsf9947256750"><feColorMatrix type="matrix" values="0 0 0 0 0.99609375  0 0 0 0 0.99609375  0 0 0 0 0.99609375  0 0 0 1 0" class="icon-fecolormatrix"></feColorMatrix></filter> <filter id="colorsb5172820474"><feColorMatrix type="matrix" values="0 0 0 0 0  0 0 0 0 0  0 0 0 0 0  0 0 0 1 0" class="icon-fecolormatrix"></feColorMatrix></filter></defs></g></g></mask></svg>